<svg width="453" height="313" viewBox="0 0 453 313" fill="none" xmlns="http://www.w3.org/2000/svg">
<circle cx="226" cy="102.619" r="96" fill="#0CA737"/>
<path d="M218.725 134.997C229.013 124.85 237.842 116.039 245.212 108.566C252.577 101.014 258.342 95.0814 262.507 90.7685C266.749 86.4513 270.478 82.7907 273.692 79.7867C276.906 76.7827 278.984 75.2551 279.924 75.2037C281.721 75.027 283.547 76.8129 285.402 80.5614C287.252 84.2316 288.239 87.2025 288.363 89.4742C288.445 90.9626 286.13 94.6245 281.421 100.46C276.785 106.213 273.304 110.803 270.977 114.23C268.728 117.652 267.702 121.165 267.899 124.769C268.015 126.884 268.814 128.569 270.296 129.823C271.775 131 273.493 131.534 275.452 131.427C277.723 131.303 280.362 129.981 283.367 127.459C286.45 124.934 291.235 120.469 297.72 114.065L298.176 122.408C291.712 129.204 285.827 135.103 280.522 140.107C275.213 145.032 270.546 148.784 266.523 151.36C262.574 153.854 259.228 155.176 256.487 155.326C254.058 155.459 251.972 154.669 250.229 152.957C248.481 151.167 247.532 148.901 247.383 146.16C247.237 143.496 247.56 140.768 248.35 137.975C249.14 135.182 250.412 131.852 252.165 127.985C253.918 124.118 256.257 119.473 259.182 114.049C262.103 108.547 264.775 103.53 267.199 98.9975C259.564 105.936 252.817 112.589 246.958 118.959C241.099 125.329 236.335 130.892 232.667 135.65C228.994 140.328 226.092 144.022 223.962 146.732C219.84 151.828 215.899 154.479 212.139 154.684C208.066 154.906 205.871 152.119 205.555 146.323C205.426 143.973 206.725 139.698 209.45 133.5C212.172 127.223 216.096 119.23 221.222 109.522C221.658 108.87 221.84 107.878 221.767 106.546C221.681 104.98 220.855 104.239 219.289 104.325C217.565 104.419 215.148 106.201 212.038 109.67C209.002 113.057 203.105 120.176 194.348 131.025C191.921 134.064 189.191 138.024 186.158 142.904C183.199 147.701 181.057 150.921 179.732 152.565C178.408 154.208 177.041 155.069 175.631 155.146C172.811 155.3 170.05 152.936 167.348 148.056C164.645 143.175 163.112 137.405 162.749 130.747C162.484 125.89 163.038 121.657 164.412 118.046C165.865 114.431 168.132 109.908 171.214 104.475C176.047 96.5904 180.021 90.9522 183.136 87.5608C186.324 84.0868 189.759 82.2493 193.441 82.0482C195.713 81.9242 197.658 82.2893 199.276 83.1438C200.889 83.9199 201.739 85.0913 201.825 86.658C201.914 88.303 200.613 91.0846 197.92 95.003C195.305 98.917 191.914 102.991 187.745 107.226C185.519 109.626 183.441 112.568 181.51 116.052C179.574 119.457 178.647 121.904 178.729 123.393C178.844 125.508 179.724 126.52 181.369 126.43C182.701 126.358 185.92 123.432 191.025 117.653C196.131 111.875 201.72 105.598 207.792 98.8243C213.939 91.9675 219.638 86.2743 224.891 81.7448C230.217 77.1327 234.8 74.7219 238.638 74.5122C240.988 74.3839 242.956 75.1799 244.543 76.9003C246.204 78.5381 247.105 80.6495 247.246 83.2345C247.34 84.9579 246.336 88.1554 244.234 92.8271C242.128 97.4205 238.985 103.17 234.806 110.077C230.7 116.901 225.34 125.207 218.725 134.997Z" fill="white"/>
<path d="M42.8 290.5C41.8 290.5 41.1 290.167 40.7 289.5L18.2 238.6H17.9L18.1 278.3C18.1667 280.1 18.3 281.5 18.5 282.5C18.7 283.433 19.2333 284.267 20.1 285C21.0333 285.667 22.4667 286 24.4 286H25C25.6667 286 26.1333 286.133 26.4 286.4C26.7333 286.6 26.9333 287.167 27 288.1C27 288.7 26.8333 289.233 26.5 289.7C26.2333 290.1 25.8 290.3 25.2 290.3L22.7 290.2C19.6333 290.067 17.4333 290 16.1 290C13.8333 290 10.5333 290.1 6.2 290.3C5.6 290.3 5.13333 290.1 4.8 289.7C4.53333 289.233 4.4 288.7 4.4 288.1C4.46667 287.1 4.66667 286.5 5 286.3C5.33333 286.1 5.96667 286 6.9 286C8.83333 286 10.2333 285.667 11.1 285C12.0333 284.267 12.6 283.433 12.8 282.5C13 281.5 13.1333 280.1 13.2 278.3L13.4 238.6C13.4 236.533 13.1667 235 12.7 234C12.2333 232.933 11.5333 232.2 10.6 231.8C9.73333 231.333 8.43333 230.933 6.7 230.6C6.43333 230.533 6.03333 230.467 5.5 230.4C4.96667 230.267 4.6 230.067 4.4 229.8C4.26667 229.467 4.2 228.967 4.2 228.3C4.2 227.5 4.4 226.967 4.8 226.7C5.26667 226.433 5.96667 226.3 6.9 226.3C10.8333 226.3 14.0667 226.567 16.6 227.1C19.1333 227.567 21.3333 228.567 23.2 230.1C25.1333 231.633 26.7333 233.9 28 236.9L45.2 275.5H45.5L65.2 226.9H70.9C74.5667 226.9 78.5333 226.8 82.8 226.6C83.4 226.6 83.8333 226.833 84.1 227.3C84.4333 227.7 84.6 228.2 84.6 228.8C84.5333 229.8 84.3 230.4 83.9 230.6C83.5667 230.8 82.9667 230.9 82.1 230.9C80.1667 230.9 78.7333 231.267 77.8 232C76.8667 232.667 76.2667 233.533 76 234.6C75.8 235.6 75.6667 236.933 75.6 238.6V278.3C75.6667 279.967 75.8 281.333 76 282.4C76.2667 283.4 76.8667 284.267 77.8 285C78.7333 285.667 80.1667 286 82.1 286H82.7C83.3 286 83.7333 286.133 84 286.4C84.3333 286.6 84.5333 287.167 84.6 288.1C84.6 288.7 84.4333 289.233 84.1 289.7C83.8333 290.1 83.4 290.3 82.8 290.3C78.5333 290.1 74.5333 290 70.8 290C66.9333 290 62.8333 290.1 58.5 290.3C57.9 290.3 57.4333 290.1 57.1 289.7C56.8333 289.233 56.7 288.7 56.7 288.1C56.7667 287.1 56.9667 286.5 57.3 286.3C57.6333 286.1 58.2667 286 59.2 286C61.1333 286 62.5667 285.667 63.5 285C64.4333 284.267 65 283.4 65.2 282.4C65.4667 281.333 65.6333 279.967 65.7 278.3V238.6H65.4L44.8 289.5C44.5333 290.167 43.8667 290.5 42.8 290.5ZM123.905 292C117.571 292 111.971 290.5 107.105 287.5C102.305 284.433 98.5714 280.4 95.9047 275.4C93.3047 270.4 92.0047 265.033 92.0047 259.3C92.0047 252.3 93.5714 246.2 96.7047 241C99.9047 235.8 103.971 231.833 108.905 229.1C113.838 226.3 118.838 224.9 123.905 224.9C130.305 224.9 135.938 226.433 140.805 229.5C145.738 232.5 149.505 236.5 152.105 241.5C154.771 246.433 156.105 251.767 156.105 257.5C156.105 264.5 154.505 270.633 151.305 275.9C148.105 281.1 144.005 285.1 139.005 287.9C134.005 290.633 128.971 292 123.905 292ZM123.805 287.6C128.338 287.6 132.105 286.267 135.105 283.6C138.171 280.867 140.438 277.233 141.905 272.7C143.438 268.1 144.205 263.033 144.205 257.5C144.205 252.367 143.438 247.667 141.905 243.4C140.371 239.067 138.071 235.633 135.005 233.1C131.938 230.5 128.205 229.2 123.805 229.2C117.138 229.2 112.105 232.033 108.705 237.7C105.371 243.3 103.705 250.4 103.705 259C103.705 264.2 104.438 268.967 105.905 273.3C107.438 277.633 109.705 281.1 112.705 283.7C115.705 286.3 119.405 287.6 123.805 287.6ZM165.668 290.3C165.135 290.3 164.701 290.1 164.368 289.7C164.035 289.233 163.868 288.7 163.868 288.1C163.935 287.1 164.135 286.5 164.468 286.3C164.868 286.1 165.535 286 166.468 286C168.401 286 169.835 285.667 170.768 285C171.701 284.267 172.268 283.4 172.468 282.4C172.735 281.333 172.901 279.967 172.968 278.3V238.6C172.901 236.933 172.735 235.6 172.468 234.6C172.268 233.533 171.701 232.667 170.768 232C169.835 231.267 168.401 230.9 166.468 230.9H165.868C165.201 230.9 164.701 230.8 164.368 230.6C164.101 230.333 163.935 229.733 163.868 228.8C163.868 228.2 164.035 227.7 164.368 227.3C164.701 226.833 165.135 226.6 165.668 226.6C170.001 226.8 174.001 226.9 177.668 226.9H192.668C198.468 226.9 204.068 228.1 209.468 230.5C214.935 232.9 217.668 237.7 217.668 244.9C217.668 248.9 216.468 252.467 214.068 255.6C211.668 258.733 208.535 261.167 204.668 262.9C200.868 264.633 196.901 265.5 192.768 265.5C188.968 265.5 185.635 264.967 182.768 263.9V278.3C182.835 279.967 182.968 281.333 183.168 282.4C183.435 283.4 184.035 284.267 184.968 285C185.901 285.667 187.335 286 189.268 286H189.868C190.535 286 191.001 286.133 191.268 286.4C191.601 286.6 191.801 287.167 191.868 288.1C191.868 288.7 191.701 289.233 191.368 289.7C191.101 290.1 190.668 290.3 190.068 290.3C185.801 290.1 181.635 290 177.568 290C173.968 290 170.001 290.1 165.668 290.3ZM189.868 261C192.268 261 194.735 260.533 197.268 259.6C199.868 258.6 202.068 256.933 203.868 254.6C205.668 252.2 206.568 249.067 206.568 245.2C206.568 239.333 204.701 235.433 200.968 233.5C197.235 231.567 193.268 230.6 189.068 230.6C187.335 230.6 186.035 230.8 185.168 231.2C184.301 231.533 183.668 232.233 183.268 233.3C182.935 234.367 182.768 236.033 182.768 238.3V259.9C184.368 260.633 186.735 261 189.868 261ZM214.858 290.3C214.258 290.3 213.824 290.1 213.558 289.7C213.224 289.233 213.058 288.7 213.058 288.1C213.124 287.1 213.324 286.5 213.658 286.3C213.991 286.1 214.391 286 214.858 286C215.324 286 215.624 286 215.758 286C217.758 286 219.224 285.5 220.158 284.5C221.091 283.433 221.824 282.267 222.358 281C222.958 279.667 223.358 278.767 223.558 278.3L241.058 236.9C241.458 235.9 241.658 235.1 241.658 234.5C241.658 233.3 241.191 232.433 240.258 231.9C239.324 231.367 238.024 230.933 236.358 230.6C235.224 230.4 234.524 230.2 234.258 230C233.991 229.8 233.858 229.233 233.858 228.3C233.858 227.5 234.058 226.967 234.458 226.7C234.924 226.433 235.624 226.3 236.558 226.3C239.891 226.3 242.524 226.567 244.458 227.1C246.458 227.567 248.191 228.567 249.658 230.1C251.124 231.567 252.491 233.833 253.758 236.9L270.558 278.3C271.558 280.833 272.524 282.733 273.458 284C274.391 285.267 275.791 285.933 277.658 286H278.258C278.924 286 279.391 286.133 279.658 286.4C279.924 286.6 280.091 287.167 280.158 288.1C280.158 288.7 279.991 289.233 279.658 289.7C279.391 290.1 278.958 290.3 278.358 290.3C274.091 290.1 270.424 290 267.358 290C263.358 290 259.224 290.1 254.958 290.3C254.358 290.3 253.891 290.1 253.558 289.7C253.291 289.233 253.158 288.7 253.158 288.1C253.224 287.167 253.391 286.6 253.658 286.4C253.924 286.133 254.391 286 255.058 286C257.324 286 258.924 285.8 259.858 285.4C260.791 284.933 261.258 284.133 261.258 283C261.258 282.133 260.858 280.567 260.058 278.3L256.658 270H231.958C230.291 274.133 229.324 276.533 229.058 277.2C228.858 277.867 228.758 278.233 228.758 278.3C227.958 280.833 227.558 282.467 227.558 283.2C227.558 284.333 228.058 285.1 229.058 285.5C230.058 285.833 231.958 286 234.758 286H235.358C236.024 286 236.491 286.133 236.758 286.4C237.024 286.6 237.191 287.167 237.258 288.1C237.258 288.7 237.091 289.233 236.758 289.7C236.491 290.1 236.058 290.3 235.458 290.3C231.191 290.1 227.558 290 224.558 290C222.424 290 219.191 290.1 214.858 290.3ZM233.858 265.7H254.858L244.758 240H244.458L233.858 265.7ZM306.09 292C299.09 292 293.723 290.8 289.99 288.4C286.323 285.933 284.49 282.333 284.49 277.6C284.49 275.2 285.29 273.233 286.89 271.7C288.557 270.1 290.69 269.3 293.29 269.3C294.823 269.367 295.99 269.767 296.79 270.5C297.59 271.167 297.99 271.8 297.99 272.4C297.99 272.467 297.657 272.7 296.99 273.1C296.323 273.5 295.723 274.1 295.19 274.9C294.657 275.7 294.39 276.8 294.39 278.2C294.39 281.333 295.323 283.767 297.19 285.5C299.123 287.167 302.09 288 306.09 288C308.823 288 311.223 287.467 313.29 286.4C315.357 285.333 316.923 283.933 317.99 282.2C319.123 280.4 319.69 278.533 319.69 276.6C319.69 274.2 318.99 272.133 317.59 270.4C316.257 268.667 314.59 267.233 312.59 266.1C310.59 264.9 307.857 263.533 304.39 262C300.39 260.2 297.157 258.567 294.69 257.1C292.223 255.633 290.123 253.7 288.39 251.3C286.657 248.833 285.79 245.8 285.79 242.2C285.79 236.4 287.757 232.067 291.69 229.2C295.69 226.333 300.923 224.9 307.39 224.9C312.457 224.9 316.857 225.967 320.59 228.1C324.39 230.233 326.29 233.367 326.29 237.5C326.29 239.9 325.457 241.9 323.79 243.5C322.19 245.033 320.09 245.8 317.49 245.8C315.957 245.733 314.79 245.367 313.99 244.7C313.19 243.967 312.79 243.3 312.79 242.7C312.79 242.633 313.223 242.4 314.09 242C315.023 241.6 315.823 241 316.49 240.2C317.223 239.4 317.59 238.3 317.59 236.9C317.59 234.433 316.623 232.5 314.69 231.1C312.823 229.7 310.423 229 307.49 229C303.423 229 300.323 229.967 298.19 231.9C296.123 233.767 295.09 236.1 295.09 238.9C295.09 241.233 295.723 243.2 296.99 244.8C298.257 246.333 300.29 247.867 303.09 249.4C305.357 250.6 307.823 251.8 310.49 253C314.757 254.933 318.123 256.7 320.59 258.3C323.123 259.9 325.223 262 326.89 264.6C328.623 267.2 329.49 270.433 329.49 274.3C329.49 277.633 328.423 280.667 326.29 283.4C324.223 286.067 321.39 288.167 317.79 289.7C314.257 291.233 310.357 292 306.09 292ZM334.682 290.3C334.082 290.3 333.649 290.1 333.382 289.7C333.049 289.233 332.882 288.7 332.882 288.1C332.949 287.1 333.149 286.5 333.482 286.3C333.815 286.1 334.215 286 334.682 286C335.149 286 335.449 286 335.582 286C337.582 286 339.049 285.5 339.982 284.5C340.915 283.433 341.649 282.267 342.182 281C342.782 279.667 343.182 278.767 343.382 278.3L360.882 236.9C361.282 235.9 361.482 235.1 361.482 234.5C361.482 233.3 361.015 232.433 360.082 231.9C359.149 231.367 357.849 230.933 356.182 230.6C355.049 230.4 354.349 230.2 354.082 230C353.815 229.8 353.682 229.233 353.682 228.3C353.682 227.5 353.882 226.967 354.282 226.7C354.749 226.433 355.449 226.3 356.382 226.3C359.715 226.3 362.349 226.567 364.282 227.1C366.282 227.567 368.015 228.567 369.482 230.1C370.949 231.567 372.315 233.833 373.582 236.9L390.382 278.3C391.382 280.833 392.349 282.733 393.282 284C394.215 285.267 395.615 285.933 397.482 286H398.082C398.749 286 399.215 286.133 399.482 286.4C399.749 286.6 399.915 287.167 399.982 288.1C399.982 288.7 399.815 289.233 399.482 289.7C399.215 290.1 398.782 290.3 398.182 290.3C393.915 290.1 390.249 290 387.182 290C383.182 290 379.049 290.1 374.782 290.3C374.182 290.3 373.715 290.1 373.382 289.7C373.115 289.233 372.982 288.7 372.982 288.1C373.049 287.167 373.215 286.6 373.482 286.4C373.749 286.133 374.215 286 374.882 286C377.149 286 378.749 285.8 379.682 285.4C380.615 284.933 381.082 284.133 381.082 283C381.082 282.133 380.682 280.567 379.882 278.3L376.482 270H351.782C350.115 274.133 349.149 276.533 348.882 277.2C348.682 277.867 348.582 278.233 348.582 278.3C347.782 280.833 347.382 282.467 347.382 283.2C347.382 284.333 347.882 285.1 348.882 285.5C349.882 285.833 351.782 286 354.582 286H355.182C355.849 286 356.315 286.133 356.582 286.4C356.849 286.6 357.015 287.167 357.082 288.1C357.082 288.7 356.915 289.233 356.582 289.7C356.315 290.1 355.882 290.3 355.282 290.3C351.015 290.1 347.382 290 344.382 290C342.249 290 339.015 290.1 334.682 290.3ZM353.682 265.7H374.682L364.582 240H364.282L353.682 265.7ZM401.41 290.3C400.877 290.3 400.443 290.1 400.11 289.7C399.843 289.233 399.71 288.7 399.71 288.1C399.777 287.1 399.977 286.5 400.31 286.3C400.643 286.1 401.277 286 402.21 286C404.143 286 405.577 285.667 406.51 285C407.443 284.267 408.01 283.4 408.21 282.4C408.477 281.333 408.643 279.967 408.71 278.3V238.6C408.643 236.933 408.477 235.6 408.21 234.6C408.01 233.533 407.443 232.667 406.51 232C405.577 231.267 404.143 230.9 402.21 230.9H401.61C400.943 230.9 400.477 230.8 400.21 230.6C399.943 230.333 399.777 229.733 399.71 228.8C399.71 228.2 399.843 227.7 400.11 227.3C400.443 226.833 400.877 226.6 401.41 226.6C405.81 226.8 409.777 226.9 413.31 226.9C417.31 226.9 421.477 226.8 425.81 226.6C426.41 226.6 426.843 226.833 427.11 227.3C427.443 227.7 427.61 228.2 427.61 228.8C427.543 229.8 427.31 230.4 426.91 230.6C426.577 230.8 425.977 230.9 425.11 230.9C423.177 230.9 421.743 231.267 420.81 232C419.877 232.667 419.277 233.533 419.01 234.6C418.81 235.6 418.677 236.933 418.61 238.6V279.8C418.743 281.2 418.91 282.3 419.11 283.1C419.31 283.833 419.91 284.533 420.91 285.2C421.91 285.8 423.477 286.067 425.61 286H434.61C436.943 285.933 438.71 285.567 439.91 284.9C441.11 284.167 442.043 283.067 442.71 281.6C443.443 280.133 444.31 277.733 445.31 274.4C445.777 273.2 446.91 272.733 448.71 273C449.31 273.133 449.877 273.4 450.41 273.8C450.943 274.2 451.177 274.7 451.11 275.3L449.11 287.9C448.91 288.767 448.61 289.333 448.21 289.6C447.81 289.867 447.143 290 446.21 290H413.41C409.81 290 405.81 290.1 401.41 290.3Z" fill="#0CA737"/>
</svg>
