<svg width="50" height="40" viewBox="0 0 50 58" fill="none" xmlns="http://www.w3.org/2000/svg">
<path fill-rule="evenodd" clip-rule="evenodd" d="M48.8632 2.40931L47.5213 2.16095L47.1691 0.632781L49.1935 0L48.8645 2.40931H48.8632ZM30.8896 24.2877L29.7326 25.1167L29.7298 25.1135L29.7258 25.1056L29.7122 25.0803L29.6659 24.9901C29.6279 24.9142 29.5708 24.8034 29.5028 24.6626C29.3123 24.2753 29.1287 23.8834 28.9522 23.4872C28.3934 22.2419 27.9056 20.9551 27.492 19.6352C27.0324 18.1418 26.6382 16.4317 26.577 14.777C26.5172 13.1286 26.7809 11.3394 27.836 9.93624C28.7836 8.67701 30.5701 7.51744 32.4476 6.51448C34.3932 5.47197 36.6827 4.47218 38.8512 3.60685C41.5373 2.53947 44.2504 1.56665 46.9869 0.689731L47.1229 0.645436L47.1705 0.629617L47.524 2.15936L48.8659 2.40773L48.8577 2.46626L48.8346 2.63395C48.6989 3.60445 48.5566 4.57369 48.4077 5.54158C48.0455 7.92179 47.6503 10.295 47.2221 12.6604C46.7381 15.3196 46.1753 18.107 45.5784 20.4404C45.2807 21.6063 44.968 22.6836 44.6444 23.5885C44.3344 24.4586 43.9673 25.3033 43.5214 25.8981C42.567 27.1669 41.0809 27.5639 39.7825 27.6652C38.4284 27.7712 36.9274 27.5798 35.5774 27.3013C34.3734 27.0489 33.1809 26.7269 32.0044 26.3363C31.523 26.1786 31.0444 26.0098 30.5687 25.8301L30.483 25.7953L30.4599 25.7858L30.4531 25.7842H30.4504L30.8909 24.2861L30.8896 24.2877ZM30.8896 24.2877L29.7326 25.1167L29.9882 25.5991L30.4504 25.7842L30.8896 24.2877ZM31.8032 22.9699C33.1951 23.4755 34.6121 23.8823 36.0464 24.1881C37.3027 24.4459 38.5589 24.5914 39.6004 24.5092C40.7003 24.4238 41.2522 24.1105 41.4739 23.8163C41.6153 23.6265 41.8464 23.1772 42.1319 22.3767C42.4052 21.6126 42.688 20.6492 42.9708 19.5403C43.5377 17.3255 44.0829 14.6315 44.5615 12.007C45.0207 9.46787 45.4413 6.91947 45.8231 4.36302L45.403 4.5054C43.8953 5.0227 41.8586 5.75198 39.7336 6.5999C37.6045 7.44941 35.4115 8.40966 33.5829 9.38889C31.6849 10.4045 30.4042 11.3268 29.8821 12.0213C29.4647 12.5749 29.2499 13.4276 29.2948 14.641C29.3383 15.848 29.636 17.2195 30.0521 18.5658C30.4627 19.8978 30.963 21.1286 31.3654 22.0303C31.5354 22.4099 31.6863 22.7295 31.8032 22.9699ZM5.79587 6.39109L5.44374 7.91925L4.10048 8.16762L3.77147 5.75989L5.79723 6.39267L5.79587 6.39109ZM18.9593 25.9013L20.1163 26.7287L20.119 26.7255L20.1217 26.7192L20.1326 26.6986L20.172 26.6227C20.377 26.2163 20.5729 25.8038 20.7594 25.3856C21.1183 24.582 21.5765 23.4604 21.9599 22.2201C22.3378 20.9925 22.6668 19.5703 22.7172 18.1845C22.7688 16.8035 22.5486 15.2627 21.6322 14.0446C20.8219 12.9657 19.3223 12.0039 17.7996 11.1876C16.2075 10.3349 14.3381 9.51861 12.572 8.81464C10.3846 7.94536 8.1752 7.15297 5.94679 6.43855L5.8353 6.40374L5.79587 6.39109L5.44374 7.91925L4.10048 8.16762L4.10728 8.21508L4.12632 8.35271L4.19973 8.86842C4.56659 11.4273 4.97954 13.9769 5.43831 16.5156C5.83258 18.6797 6.29212 20.953 6.77885 22.8592C7.02357 23.8115 7.27917 24.699 7.54701 25.4473C7.80125 26.1592 8.11259 26.8853 8.50415 27.4042C9.34709 28.5273 10.6428 28.8596 11.7155 28.9418C12.8466 29.0304 14.0879 28.8706 15.196 28.6444C16.5872 28.3538 17.9592 27.9499 19.3019 27.4358L19.3712 27.4089L19.3916 27.401L19.3984 27.3978L18.9593 25.9013ZM18.9593 25.9013L20.1163 26.7287L19.8607 27.2127L19.3984 27.3978L18.9593 25.9013ZM18.0443 24.582C18.5755 23.4835 19.0289 22.3365 19.3998 21.1523C19.7329 20.0718 19.9667 18.9882 20.0007 18.0485C20.0361 17.1025 19.8648 16.4982 19.5861 16.1264C19.2013 15.617 18.2088 14.8893 16.663 14.062C15.1892 13.2726 13.4163 12.4958 11.6896 11.8077C10.1855 11.2102 8.67058 10.6501 7.14593 10.1277L7.15137 10.1672C7.3825 11.6859 7.71152 13.7361 8.099 15.8607C8.48647 17.99 8.92834 20.1683 9.38515 21.9575C9.61492 22.8529 9.84061 23.6265 10.0581 24.2339C10.2893 24.8778 10.4633 25.2052 10.5503 25.3223C10.6618 25.4694 11.0221 25.7178 11.8977 25.7858C12.7148 25.8491 13.7127 25.7352 14.7242 25.528C15.8467 25.2925 16.9556 24.976 18.0443 24.5804V24.582ZM15.0668 39.6643C14.7215 39.6864 14.5529 39.7434 14.5094 39.7655C13.8935 40.0898 12.0227 40.8492 10.4076 41.4899C9.57821 41.8205 8.78286 42.1306 8.19553 42.3599L8.15746 42.3758V50.923C8.39674 50.9104 8.6537 50.8993 8.9161 50.8882C10.0418 50.8408 11.381 50.7933 11.9616 50.8218C14.3979 50.9341 16.2279 51.6049 17.9219 52.2266L17.9586 52.2408C19.5466 52.823 21.0177 53.3577 22.9442 53.5269C23.488 53.5744 24.0169 53.6361 24.5104 53.693H24.5172C26.4125 53.9145 27.6606 54.0252 28.6272 53.6171C29.3791 53.2991 32.1322 51.8137 34.9085 50.189C36.2816 49.3854 37.6276 48.5675 38.6976 47.8667C39.2346 47.5155 39.6901 47.2023 40.0395 46.9397C40.2135 46.8084 40.3522 46.6976 40.4583 46.6075C40.4999 46.5719 40.5407 46.535 40.5806 46.4967L40.6187 46.4588C40.7546 46.299 40.8988 45.7421 40.6649 45.2185C40.5549 44.9737 40.373 44.7828 40.1524 44.6807C39.8804 44.543 39.4182 44.437 38.684 44.5778C37.028 44.8942 35.0499 45.8212 33.0744 46.7562L33.0472 46.7704C32.0765 47.2292 31.103 47.6895 30.2397 48.0249C29.4103 48.346 28.4899 48.634 27.6878 48.5786C26.5865 48.4995 24.6545 48.1673 23.0611 47.8667C22.1454 47.6944 21.2309 47.5141 20.3175 47.3257L20.1408 47.2893L20.0782 47.2751L20.3365 44.1365L26.5498 44.2235H26.5634C26.636 44.2143 26.7078 44.1985 26.7782 44.176C26.993 44.1127 27.3615 43.9561 27.8251 43.5749C27.9678 43.4562 28.1555 43.2379 28.3308 42.9453C28.4029 42.8234 28.4641 42.7032 28.5157 42.5877C27.7582 42.5316 27.0055 42.4079 26.2643 42.2176C25.8607 42.1153 25.4602 41.9966 25.0638 41.8616L25.0176 41.8458L17.408 39.8747L17.336 39.8605C16.9309 39.7822 16.5231 39.7241 16.1137 39.6864C15.7655 39.6528 15.4158 39.6454 15.0668 39.6643ZM17.6758 38.3244L17.9219 36.7693L17.9464 36.7741L25.7205 38.7863L25.7776 38.8069L25.7884 38.8116L25.8401 38.829L26.0549 38.9002C26.2439 38.9603 26.5158 39.0426 26.8394 39.1248C27.5001 39.2909 28.3268 39.4444 29.0908 39.4444C29.8563 39.4444 30.6883 39.7766 31.137 40.7226C31.5204 41.5326 31.4252 42.409 31.2906 42.988C31.1657 43.4999 30.9794 43.9888 30.7373 44.4402C31.1506 44.2504 31.5897 44.0447 32.0506 43.8264L32.1349 43.7853C34.0084 42.8994 36.2544 41.8363 38.2435 41.4551C40.5548 41.0153 42.2882 41.9803 43.0809 43.7647C43.7797 45.3387 43.6247 47.4143 42.5574 48.6767C42.2896 48.9931 41.8912 49.3142 41.5106 49.6005C41.0973 49.909 40.5915 50.257 40.0314 50.6241C38.9097 51.3581 37.5216 52.2013 36.1294 53.016C33.3803 54.6248 30.4844 56.1989 29.5545 56.5912C27.942 57.2714 26.0767 57.0547 24.4193 56.8617L24.2467 56.8411C23.7451 56.7813 23.2429 56.7285 22.7403 56.6829C20.4834 56.4836 18.754 55.8492 17.1742 55.2703L17.1402 55.2576C15.4407 54.6343 13.9098 54.079 11.8541 53.9825C11.4028 53.962 10.1873 53.9999 9.01535 54.0506C8.35539 54.0784 7.69554 54.1095 7.03581 54.1439L6.86042 54.1534L5.43831 54.2293V40.093L6.63065 39.6326C7.59816 39.2585 8.56437 38.8799 9.52927 38.4968C11.2206 37.8245 12.9255 37.1268 13.3905 36.8832C13.8894 36.6206 14.4564 36.5352 14.9105 36.5035C15.3931 36.4719 15.8894 36.4956 16.3231 36.5336C16.8451 36.5812 17.365 36.6566 17.8811 36.7598L17.9097 36.7662H17.9179L17.9206 36.7677H17.9233L17.6758 38.3244Z" fill="#181818" fill-opacity="0.9"/>
<path fill-rule="evenodd" clip-rule="evenodd" d="M39.6317 11.5576C39.7674 11.6927 39.8789 11.8575 39.9598 12.0427C40.0408 12.2278 40.0896 12.4298 40.1035 12.6369C40.1174 12.844 40.0961 13.0523 40.0408 13.2498C39.9855 13.4474 39.8973 13.6303 39.7812 13.7882C35.7283 19.2903 30.6829 27.3535 28.4559 33.9076C28.3902 34.1008 28.2925 34.2771 28.1682 34.4263C28.044 34.5755 27.8957 34.6948 27.7318 34.7774C27.5679 34.86 27.3917 34.9042 27.2132 34.9075C27.0346 34.9108 26.8572 34.8731 26.6912 34.7967C26.5252 34.7202 26.3737 34.6065 26.2454 34.4619C26.1172 34.3173 26.0146 34.1448 25.9437 33.9541C25.8727 33.7634 25.8347 33.5584 25.8319 33.3506C25.8291 33.1429 25.8614 32.9365 25.9271 32.7433C28.3241 25.6893 33.6101 17.3033 37.7147 11.7301C37.9494 11.4117 38.2832 11.2148 38.6427 11.1827C39.0023 11.1507 39.358 11.2861 39.6317 11.5592V11.5576Z" fill="#181818" fill-opacity="0.9"/>
<path fill-rule="evenodd" clip-rule="evenodd" d="M12.7528 16.6325C12.6126 16.7613 12.4956 16.9209 12.4084 17.1024C12.3213 17.2838 12.2657 17.4834 12.2449 17.6898C12.224 17.8962 12.2384 18.1053 12.287 18.3053C12.3357 18.5053 12.4178 18.6921 12.5285 18.8552C15.5767 23.3558 18.9049 29.1157 20.4847 33.8932C20.6204 34.2745 20.8787 34.579 21.2046 34.7418C21.5305 34.9046 21.8982 34.9128 22.2292 34.7646C22.5602 34.6164 22.8283 34.3236 22.9764 33.9486C23.1245 33.5736 23.1407 33.1461 23.0217 32.7573C21.2937 27.5306 17.7629 21.4701 14.663 16.8967C14.44 16.5672 14.1136 16.3543 13.7556 16.3048C13.3977 16.2552 13.0375 16.3731 12.7542 16.6325H12.7528Z" fill="#181818" fill-opacity="0.9"/>
<path d="M0 36.4895H8.15747V57.0544H0V36.4895Z" fill="#181818" fill-opacity="0.9"/>
</svg>
