<svg width="108" height="108" viewBox="0 0 108 108" fill="none" xmlns="http://www.w3.org/2000/svg">
<path fill-rule="evenodd" clip-rule="evenodd" d="M63.297 19.6515C62.85 19.4321 62.3866 19.2478 61.911 19.1003C59.9017 18.4545 57.0037 18 54 18C50.9962 18 48.0982 18.4545 46.089 19.1025C45.4545 19.305 45.0022 19.4985 44.703 19.6515L40.8645 32.4495L38.259 33.0075C34.695 33.768 32.058 34.7265 30.429 35.6625C30.2454 35.7691 30.0653 35.8816 29.889 36C30.834 36.6367 32.3932 37.3725 34.641 38.0632C39.3975 39.5257 46.242 40.5 54 40.5C61.758 40.5 68.6025 39.5257 73.359 38.0632C75.6067 37.3725 77.166 36.6367 78.111 35.9977C77.9347 35.8809 77.7546 35.7698 77.571 35.6647C75.942 34.7265 73.305 33.768 69.741 33.0075L67.1377 32.4495L63.297 19.6515ZM78.8895 36.6592L78.876 36.6345L78.8917 36.6592H78.8895ZM78.885 35.3565C78.8914 35.3433 78.8998 35.3312 78.9097 35.3205C78.9097 35.3205 78.9052 35.334 78.8872 35.3565H78.885ZM29.0902 35.3205C29.0902 35.3205 29.1015 35.3317 29.1128 35.3565C29.0947 35.334 29.0902 35.3205 29.0902 35.3205ZM29.124 36.6345C29.1197 36.6433 29.1144 36.6516 29.1083 36.6592L29.124 36.6345ZM44.2485 19.9305L44.2867 19.899C44.275 19.9106 44.2622 19.9212 44.2485 19.9305ZM63.711 19.899L63.7515 19.9305C63.7492 19.9305 63.7357 19.9215 63.7132 19.899H63.711ZM70.6815 28.6065L67.5 18C67.5 15.5137 60.777 13.5 54 13.5C47.223 13.5 40.5 15.5137 40.5 18L37.3185 28.6065C29.7225 30.231 24.75 32.9377 24.75 36C24.75 40.9725 37.845 45 54 45C70.155 45 83.25 40.9725 83.25 36C83.25 32.9377 78.2775 30.231 70.6815 28.6065Z" fill="#666666"/>
<path fill-rule="evenodd" clip-rule="evenodd" d="M36.0045 43.0964C36.0958 47.8091 38.032 52.2979 41.3971 55.5984C44.7621 58.899 49.2876 60.7479 54.0011 60.7479C58.7147 60.7479 63.2401 58.899 66.6052 55.5984C69.9703 52.2979 71.9065 47.8091 71.9978 43.0964C70.4919 43.4551 68.9728 43.7553 67.4438 43.9964C67.1367 47.3497 65.5875 50.4672 63.1003 52.7371C60.6131 55.0069 57.3673 56.2653 54 56.2653C50.6327 56.2653 47.387 55.0069 44.8997 52.7371C42.4125 50.4672 40.8633 47.3497 40.5563 43.9964C39.028 43.7553 37.5096 43.455 36.0045 43.0964Z" fill="#666666"/>
<path fill-rule="evenodd" clip-rule="evenodd" d="M67.059 24.7949L67.5 26.9999L67.941 29.2049L67.932 29.2072L67.9163 29.2117L67.8578 29.2229L67.6463 29.2612C66.4252 29.4734 65.1985 29.652 63.9675 29.7967C57.3449 30.5679 50.6551 30.5679 44.0325 29.7967C42.8016 29.6521 41.5748 29.4735 40.3538 29.2612C40.2832 29.2488 40.2127 29.2361 40.1423 29.2229L40.0838 29.2117L40.068 29.2072H40.059L40.5 26.9999L40.941 24.7949H40.9478L40.9883 24.8017C41.2782 24.8583 41.5693 24.9094 41.8613 24.9547C42.4823 25.0559 43.4003 25.1909 44.5613 25.3282C50.8326 26.0578 57.1674 26.0578 63.4388 25.3282C64.6346 25.1871 65.8261 25.0115 67.0118 24.8017L67.0523 24.7949H67.059Z" fill="#666666"/>
<path fill-rule="evenodd" clip-rule="evenodd" d="M31.1175 94.5C31.365 93.7957 31.5 93.0375 31.5 92.25V90H90V81C90 79.8615 89.442 78.543 87.3787 77.0017C85.2637 75.4222 82.062 74.0205 78.0817 72.882C70.164 70.6162 60.48 69.75 54 69.75C50.2515 69.75 45.4297 70.0402 40.5 70.722V66.1815C44.9756 65.5845 49.4848 65.2734 54 65.25C67.518 65.25 94.5 68.8117 94.5 81V94.5H31.1175Z" fill="#666666"/>
<path fill-rule="evenodd" clip-rule="evenodd" d="M40.5 81V69.75H45V81H40.5Z" fill="#666666"/>
<path fill-rule="evenodd" clip-rule="evenodd" d="M74.25 81V69.75H78.75V81H74.25Z" fill="#666666"/>
<path fill-rule="evenodd" clip-rule="evenodd" d="M63 81V69.75H67.5V81H63Z" fill="#666666"/>
<path fill-rule="evenodd" clip-rule="evenodd" d="M38.6932 78.75C37.6479 80.5552 36.2004 82.0951 34.4632 83.25H39.7147L40.113 83.3827C40.869 83.6257 41.9377 83.943 43.2675 84.2557C45.9157 84.879 49.6417 85.5 54 85.5C58.3582 85.5 62.0842 84.879 64.7325 84.2557C65.9324 83.9755 67.1186 83.6399 68.2875 83.25H76.5V90H31.5V92.25C31.5 93.0375 31.365 93.7957 31.1175 94.5H81V81C81 80.4033 80.7629 79.831 80.341 79.409C79.919 78.9871 79.3467 78.75 78.75 78.75H67.5C67.5 78.75 61.875 81 54 81C46.125 81 40.5 78.75 40.5 78.75H38.6932Z" fill="#666666"/>
<path fill-rule="evenodd" clip-rule="evenodd" d="M15.75 54C16.3467 54 16.919 54.2371 17.341 54.659C17.7629 55.081 18 55.6533 18 56.25V72C18 73.1935 18.4741 74.3381 19.318 75.182C20.1619 76.0259 21.3065 76.5 22.5 76.5V56.25C22.5 55.6533 22.7371 55.081 23.159 54.659C23.581 54.2371 24.1533 54 24.75 54C25.3467 54 25.919 54.2371 26.341 54.659C26.7629 55.081 27 55.6533 27 56.25V76.5C28.1935 76.5 29.3381 76.0259 30.182 75.182C31.0259 74.3381 31.5 73.1935 31.5 72V56.25C31.5 55.6533 31.7371 55.081 32.159 54.659C32.581 54.2371 33.1533 54 33.75 54C34.3467 54 34.919 54.2371 35.341 54.659C35.763 55.081 36 55.6533 36 56.25V72C36 74.3869 35.0518 76.6761 33.364 78.364C31.6761 80.0518 29.387 81 27 81V92.25C27 92.8467 26.7629 93.419 26.341 93.841C25.919 94.2629 25.3467 94.5 24.75 94.5C24.1533 94.5 23.581 94.2629 23.159 93.841C22.7371 93.419 22.5 92.8467 22.5 92.25V81C20.1131 81 17.8239 80.0518 16.136 78.364C14.4482 76.6761 13.5 74.3869 13.5 72V56.25C13.5 55.6533 13.7371 55.081 14.159 54.659C14.581 54.2371 15.1533 54 15.75 54Z" fill="#666666"/>
</svg>
