<svg width="80" height="80" viewBox="0 0 86 86" fill="none" xmlns="http://www.w3.org/2000/svg">
<path d="M21.5 24.1875C19.3739 24.1875 17.2955 23.557 15.5276 22.3758C13.7598 21.1946 12.3819 19.5157 11.5683 17.5514C10.7547 15.587 10.5418 13.4256 10.9566 11.3403C11.3714 9.25499 12.3952 7.33952 13.8986 5.83611C15.402 4.33269 17.3175 3.30885 19.4028 2.89406C21.4881 2.47927 23.6495 2.69216 25.6139 3.5058C27.5782 4.31944 29.2571 5.6973 30.4383 7.46512C31.6195 9.23295 32.25 11.3114 32.25 13.4375C32.25 16.2886 31.1174 19.0229 29.1014 21.0389C27.0854 23.0549 24.3511 24.1875 21.5 24.1875ZM21.5 8.06251C20.4369 8.06251 19.3977 8.37774 18.5138 8.96836C17.6299 9.55897 16.941 10.3984 16.5342 11.3806C16.1273 12.3627 16.0209 13.4435 16.2283 14.4861C16.4357 15.5288 16.9476 16.4865 17.6993 17.2382C18.451 17.9899 19.4087 18.5018 20.4514 18.7092C21.494 18.9166 22.5748 18.8102 23.5569 18.4034C24.5391 17.9965 25.3785 17.3076 25.9692 16.4237C26.5598 15.5398 26.875 14.5006 26.875 13.4375C26.875 12.012 26.3087 10.6448 25.3007 9.63681C24.2927 8.6288 22.9255 8.06251 21.5 8.06251Z" fill="#666666"/>
<path d="M64.5 24.1875C62.3739 24.1875 60.2955 23.557 58.5276 22.3758C56.7598 21.1946 55.3819 19.5157 54.5683 17.5514C53.7547 15.587 53.5418 13.4256 53.9566 11.3403C54.3714 9.25499 55.3952 7.33952 56.8986 5.83611C58.402 4.33269 60.3175 3.30885 62.4028 2.89406C64.4881 2.47927 66.6495 2.69216 68.6139 3.5058C70.5782 4.31944 72.2571 5.6973 73.4383 7.46512C74.6195 9.23295 75.25 11.3114 75.25 13.4375C75.25 16.2886 74.1174 19.0229 72.1014 21.0389C70.0854 23.0549 67.3511 24.1875 64.5 24.1875ZM64.5 8.06251C63.4369 8.06251 62.3977 8.37774 61.5138 8.96836C60.6299 9.55897 59.941 10.3984 59.5342 11.3806C59.1273 12.3627 59.0209 13.4435 59.2283 14.4861C59.4357 15.5288 59.9476 16.4865 60.6993 17.2382C61.451 17.9899 62.4087 18.5018 63.4514 18.7092C64.494 18.9166 65.5748 18.8102 66.5569 18.4034C67.5391 17.9965 68.3785 17.3076 68.9692 16.4237C69.5598 15.5398 69.875 14.5006 69.875 13.4375C69.875 12.012 69.3087 10.6448 68.3007 9.63681C67.2927 8.6288 65.9255 8.06251 64.5 8.06251Z" fill="#666666"/>
<path d="M69.875 80.625H59.125C57.6995 80.625 56.3323 80.0587 55.3243 79.0507C54.3163 78.0427 53.75 76.6755 53.75 75.25V56.4375H59.125V75.25H69.875V51.0625H75.25V34.9375C75.25 34.2247 74.9669 33.5412 74.4629 33.0372C73.9588 32.5331 73.2753 32.25 72.5625 32.25H55.3088L43 53.75L36.8456 43L30.6912 32.25H13.4375C12.7247 32.25 12.0412 32.5331 11.5372 33.0372C11.0331 33.5412 10.75 34.2247 10.75 34.9375V51.0625H16.125V75.25H26.875V56.4375H32.25V75.25C32.25 76.6755 31.6837 78.0427 30.6757 79.0507C29.6677 80.0587 28.3005 80.625 26.875 80.625H16.125C14.6995 80.625 13.3323 80.0587 12.3243 79.0507C11.3163 78.0427 10.75 76.6755 10.75 75.25V56.4375C9.32446 56.4375 7.95731 55.8712 6.9493 54.8632C5.94129 53.8552 5.375 52.488 5.375 51.0625V34.9375C5.375 32.7992 6.22444 30.7485 7.73645 29.2365C9.24846 27.7244 11.2992 26.875 13.4375 26.875H33.8088L43 43L52.1912 26.875H72.5625C74.7008 26.875 76.7515 27.7244 78.2635 29.2365C79.7756 30.7485 80.625 32.7992 80.625 34.9375V51.0625C80.625 52.488 80.0587 53.8552 79.0507 54.8632C78.0427 55.8712 76.6755 56.4375 75.25 56.4375V75.25C75.25 76.6755 74.6837 78.0427 73.6757 79.0507C72.6677 80.0587 71.3005 80.625 69.875 80.625Z" fill="#666666"/>
</svg>
