<svg width="70" height="80" viewBox="0 0 76 80" fill="none" xmlns="http://www.w3.org/2000/svg">
<path d="M38 0C33.8246 0 29.743 1.23471 26.2713 3.54801C22.7996 5.8613 20.0937 9.14927 18.4959 12.9961C16.898 16.843 16.48 21.076 17.2945 25.1598C18.1091 29.2436 20.1197 32.9948 23.0722 35.9391C26.0246 38.8834 29.7863 40.8884 33.8814 41.7007C37.9766 42.5131 42.2213 42.0962 46.0789 40.5027C49.9364 38.9093 53.2335 36.2109 55.5532 32.7488C57.873 29.2868 59.1111 25.2164 59.1111 21.0526C59.1111 15.4691 56.8869 10.1143 52.9278 6.16617C48.9687 2.21804 43.599 0 38 0ZM38 33.6842C35.4948 33.6842 33.0458 32.9434 30.9628 31.5554C28.8798 30.1674 27.2562 28.1946 26.2975 25.8865C25.3388 23.5784 25.088 21.0386 25.5767 18.5883C26.0655 16.138 27.2718 13.8873 29.0433 12.1208C30.8148 10.3542 33.0718 9.15116 35.5289 8.66377C37.986 8.17637 40.5328 8.42652 42.8473 9.38258C45.1619 10.3386 47.1401 11.9577 48.5319 14.0349C49.9238 16.1122 50.6667 18.5543 50.6667 21.0526C50.6667 24.4027 49.3321 27.6156 46.9567 29.9845C44.5812 32.3534 41.3594 33.6842 38 33.6842ZM76 80V75.7895C76 67.9726 72.8861 60.4758 67.3434 54.9484C61.8006 49.421 54.2831 46.3158 46.4444 46.3158H29.5556C21.7169 46.3158 14.1994 49.421 8.65662 54.9484C3.11388 60.4758 0 67.9726 0 75.7895V80H8.44444V75.7895C8.44444 70.206 10.6686 64.8512 14.6277 60.903C18.5868 56.9549 23.9565 54.7368 29.5556 54.7368H46.4444C52.0435 54.7368 57.4132 56.9549 61.3723 60.903C65.3314 64.8512 67.5556 70.206 67.5556 75.7895V80H76Z" fill="#666666"/>
</svg>
